<svg width="235" height="296" viewBox="0 0 235 296" fill="none" xmlns="http://www.w3.org/2000/svg">
<g filter="url(#filter0_d_1_11)">
<mask id="path-1-inside-1_1_11" fill="white">
<rect x="4" y="12.5228" width="226.872" height="238.223" rx="8"/>
</mask>
<rect x="4" y="12.5228" width="226.872" height="238.223" rx="8" fill="white"/>
<rect x="4" y="12.5228" width="226.872" height="238.223" rx="8" stroke="black" stroke-width="20" stroke-linecap="square" mask="url(#path-1-inside-1_1_11)"/>
</g>
<path d="M57.894 213.618V53.6181H163.832V81.5088H91.7222V119.634H156.8V147.524H91.7222V213.618H57.894Z" fill="#FE527E"/>
<path d="M57.894 213.618H48.894V222.618H57.894V213.618ZM57.894 53.6181V44.6181H48.894V53.6181H57.894ZM163.832 53.6181H172.832V44.6181H163.832V53.6181ZM163.832 81.5088V90.5088H172.832V81.5088H163.832ZM91.7222 81.5088V72.5088H82.7222V81.5088H91.7222ZM91.7222 119.634H82.7222V128.634H91.7222V119.634ZM156.8 119.634H165.8V110.634H156.8V119.634ZM156.8 147.524V156.524H165.8V147.524H156.8ZM91.7222 147.524V138.524H82.7222V147.524H91.7222ZM91.7222 213.618V222.618H100.722V213.618H91.7222ZM66.894 213.618V53.6181H48.894V213.618H66.894ZM57.894 62.6181H163.832V44.6181H57.894V62.6181ZM154.832 53.6181V81.5088H172.832V53.6181H154.832ZM163.832 72.5088H91.7222V90.5088H163.832V72.5088ZM82.7222 81.5088V119.634H100.722V81.5088H82.7222ZM91.7222 128.634H156.8V110.634H91.7222V128.634ZM147.8 119.634V147.524H165.8V119.634H147.8ZM156.8 138.524H91.7222V156.524H156.8V138.524ZM82.7222 147.524V213.618H100.722V147.524H82.7222ZM91.7222 204.618H57.894V222.618H91.7222V204.618Z" fill="#FF8C00"/>
<path d="M57.894 213.618H48.894V222.618H57.894V213.618ZM57.894 53.6181V44.6181H48.894V53.6181H57.894ZM163.832 53.6181H172.832V44.6181H163.832V53.6181ZM163.832 81.5088V90.5088H172.832V81.5088H163.832ZM91.7222 81.5088V72.5088H82.7222V81.5088H91.7222ZM91.7222 119.634H82.7222V128.634H91.7222V119.634ZM156.8 119.634H165.8V110.634H156.8V119.634ZM156.8 147.524V156.524H165.8V147.524H156.8ZM91.7222 147.524V138.524H82.7222V147.524H91.7222ZM91.7222 213.618V222.618H100.722V213.618H91.7222ZM66.894 213.618V53.6181H48.894V213.618H66.894ZM57.894 62.6181H163.832V44.6181H57.894V62.6181ZM154.832 53.6181V81.5088H172.832V53.6181H154.832ZM163.832 72.5088H91.7222V90.5088H163.832V72.5088ZM82.7222 81.5088V119.634H100.722V81.5088H82.7222ZM91.7222 128.634H156.8V110.634H91.7222V128.634ZM147.8 119.634V147.524H165.8V119.634H147.8ZM156.8 138.524H91.7222V156.524H156.8V138.524ZM82.7222 147.524V213.618H100.722V147.524H82.7222ZM91.7222 204.618H57.894V222.618H91.7222V204.618Z" fill="black" fill-opacity="0.68"/>
<defs>
<filter id="filter0_d_1_11" x="0" y="12.5228" width="234.872" height="246.223" filterUnits="userSpaceOnUse" color-interpolation-filters="sRGB">
<feFlood flood-opacity="0" result="BackgroundImageFix"/>
<feColorMatrix in="SourceAlpha" type="matrix" values="0 0 0 0 0 0 0 0 0 0 0 0 0 0 0 0 0 0 127 0" result="hardAlpha"/>
<feOffset dy="4"/>
<feGaussianBlur stdDeviation="2"/>
<feComposite in2="hardAlpha" operator="out"/>
<feColorMatrix type="matrix" values="0 0 0 0 0 0 0 0 0 0 0 0 0 0 0 0 0 0 0.25 0"/>
<feBlend mode="normal" in2="BackgroundImageFix" result="effect1_dropShadow_1_11"/>
<feBlend mode="normal" in="SourceGraphic" in2="effect1_dropShadow_1_11" result="shape"/>
</filter>
</defs>
</svg>
