<svg width="456" height="456" viewBox="0 0 456 456" fill="none" xmlns="http://www.w3.org/2000/svg">
<rect width="455.269" height="455.269" fill="url(#paint0_linear_1_8)"/>
<path d="M18.7832 217.933V181.569H42.8599V187.908H26.4714V196.573H41.2619V202.912H26.4714V217.933H18.7832ZM81.4474 199.751C81.4474 203.717 80.6957 207.09 79.1924 209.872C77.701 212.654 75.665 214.778 73.0845 216.246C70.5158 217.702 67.6276 218.43 64.4197 218.43C61.1882 218.43 58.2881 217.696 55.7194 216.228C53.1508 214.761 51.1207 212.636 49.6292 209.854C48.1377 207.072 47.392 203.705 47.392 199.751C47.392 195.786 48.1377 192.412 49.6292 189.63C51.1207 186.849 53.1508 184.73 55.7194 183.274C58.2881 181.806 61.1882 181.072 64.4197 181.072C67.6276 181.072 70.5158 181.806 73.0845 183.274C75.665 184.73 77.701 186.849 79.1924 189.63C80.6957 192.412 81.4474 195.786 81.4474 199.751ZM73.6527 199.751C73.6527 197.182 73.268 195.016 72.4985 193.253C71.741 191.489 70.6697 190.151 69.2848 189.24C67.8998 188.328 66.2781 187.873 64.4197 187.873C62.5613 187.873 60.9396 188.328 59.5546 189.24C58.1697 190.151 57.0925 191.489 56.3231 193.253C55.5655 195.016 55.1867 197.182 55.1867 199.751C55.1867 202.32 55.5655 204.486 56.3231 206.25C57.0925 208.013 58.1697 209.351 59.5546 210.262C60.9396 211.174 62.5613 211.63 64.4197 211.63C66.2781 211.63 67.8998 211.174 69.2848 210.262C70.6697 209.351 71.741 208.013 72.4985 206.25C73.268 204.486 73.6527 202.32 73.6527 199.751ZM120.559 199.751C120.559 203.717 119.807 207.09 118.304 209.872C116.812 212.654 114.776 214.778 112.196 216.246C109.627 217.702 106.739 218.43 103.531 218.43C100.299 218.43 97.3994 217.696 94.8307 216.228C92.2621 214.761 90.232 212.636 88.7405 209.854C87.2491 207.072 86.5033 203.705 86.5033 199.751C86.5033 195.786 87.2491 192.412 88.7405 189.63C90.232 186.849 92.2621 184.73 94.8307 183.274C97.3994 181.806 100.299 181.072 103.531 181.072C106.739 181.072 109.627 181.806 112.196 183.274C114.776 184.73 116.812 186.849 118.304 189.63C119.807 192.412 120.559 195.786 120.559 199.751ZM112.764 199.751C112.764 197.182 112.379 195.016 111.61 193.253C110.852 191.489 109.781 190.151 108.396 189.24C107.011 188.328 105.389 187.873 103.531 187.873C101.673 187.873 100.051 188.328 98.666 189.24C97.281 190.151 96.2039 191.489 95.4344 193.253C94.6769 195.016 94.2981 197.182 94.2981 199.751C94.2981 202.32 94.6769 204.486 95.4344 206.25C96.2039 208.013 97.281 209.351 98.666 210.262C100.051 211.174 101.673 211.63 103.531 211.63C105.389 211.63 107.011 211.174 108.396 210.262C109.781 209.351 110.852 208.013 111.61 206.25C112.379 204.486 112.764 202.32 112.764 199.751ZM126.254 217.933V181.569H140.814C143.489 181.569 145.72 181.966 147.507 182.759C149.295 183.552 150.638 184.653 151.538 186.062C152.438 187.458 152.887 189.068 152.887 190.891C152.887 192.312 152.603 193.56 152.035 194.637C151.467 195.703 150.686 196.579 149.691 197.265C148.709 197.94 147.584 198.419 146.318 198.704V199.059C147.703 199.118 148.999 199.508 150.206 200.231C151.426 200.953 152.414 201.965 153.171 203.267C153.929 204.557 154.308 206.096 154.308 207.883C154.308 209.813 153.828 211.535 152.87 213.05C151.923 214.553 150.52 215.743 148.662 216.619C146.803 217.495 144.513 217.933 141.79 217.933H126.254ZM133.942 211.647H140.21C142.352 211.647 143.915 211.239 144.897 210.422C145.88 209.594 146.371 208.493 146.371 207.12C146.371 206.114 146.128 205.226 145.643 204.456C145.158 203.687 144.465 203.083 143.566 202.645C142.678 202.207 141.618 201.988 140.387 201.988H133.942V211.647ZM133.942 196.786H139.642C140.695 196.786 141.63 196.602 142.447 196.236C143.276 195.857 143.927 195.324 144.4 194.637C144.885 193.951 145.128 193.128 145.128 192.169C145.128 190.856 144.661 189.796 143.725 188.991C142.802 188.186 141.488 187.784 139.784 187.784H133.942V196.786ZM159.311 217.933V181.569H183.813V187.908H166.999V196.573H182.553V202.912H166.999V211.594H183.884V217.933H159.311ZM189.926 217.933V181.569H204.272C207.019 181.569 209.362 182.061 211.304 183.043C213.257 184.014 214.742 185.393 215.76 187.18C216.79 188.956 217.305 191.045 217.305 193.448C217.305 195.863 216.784 197.94 215.743 199.68C214.701 201.408 213.192 202.734 211.215 203.657C209.25 204.581 206.871 205.042 204.077 205.042H194.471V198.863H202.834C204.302 198.863 205.521 198.662 206.492 198.26C207.462 197.857 208.185 197.254 208.658 196.449C209.143 195.644 209.386 194.643 209.386 193.448C209.386 192.24 209.143 191.222 208.658 190.394C208.185 189.565 207.457 188.938 206.474 188.512C205.503 188.074 204.278 187.855 202.799 187.855H197.614V217.933H189.926ZM209.564 201.385L218.601 217.933H210.114L201.272 201.385H209.564ZM254.037 192.027C253.895 190.595 253.285 189.482 252.208 188.689C251.131 187.896 249.669 187.5 247.823 187.5C246.568 187.5 245.508 187.677 244.644 188.032C243.78 188.376 243.117 188.855 242.656 189.471C242.206 190.086 241.981 190.785 241.981 191.566C241.957 192.217 242.093 192.785 242.389 193.27C242.697 193.756 243.117 194.176 243.65 194.531C244.183 194.874 244.798 195.176 245.497 195.437C246.195 195.685 246.941 195.898 247.734 196.076L251.001 196.857C252.587 197.212 254.043 197.686 255.369 198.277C256.695 198.869 257.843 199.597 258.813 200.461C259.784 201.325 260.536 202.343 261.068 203.515C261.613 204.687 261.891 206.031 261.903 207.546C261.891 209.771 261.323 211.701 260.198 213.334C259.086 214.956 257.476 216.217 255.369 217.116C253.274 218.004 250.746 218.448 247.787 218.448C244.851 218.448 242.295 217.998 240.117 217.098C237.95 216.199 236.258 214.867 235.038 213.103C233.831 211.328 233.198 209.132 233.139 206.516H240.578C240.661 207.735 241.01 208.753 241.626 209.57C242.253 210.375 243.088 210.985 244.129 211.399C245.183 211.801 246.373 212.003 247.698 212.003C249 212.003 250.131 211.813 251.09 211.434C252.06 211.056 252.812 210.529 253.345 209.854C253.877 209.179 254.144 208.404 254.144 207.528C254.144 206.711 253.901 206.025 253.416 205.468C252.942 204.912 252.244 204.439 251.32 204.048C250.409 203.657 249.29 203.302 247.965 202.983L244.005 201.988C240.939 201.243 238.519 200.077 236.743 198.49C234.967 196.904 234.086 194.768 234.097 192.081C234.086 189.879 234.672 187.955 235.855 186.31C237.051 184.665 238.69 183.38 240.774 182.457C242.857 181.534 245.224 181.072 247.876 181.072C250.575 181.072 252.93 181.534 254.943 182.457C256.967 183.38 258.541 184.665 259.666 186.31C260.79 187.955 261.37 189.861 261.406 192.027H254.037ZM267.074 217.933V181.569H291.577V187.908H274.762V196.573H290.316V202.912H274.762V211.594H291.648V217.933H267.074ZM303.957 217.933H295.719L308.272 181.569H318.179L330.715 217.933H322.476L313.368 189.879H313.084L303.957 217.933ZM303.442 203.64H322.902V209.641H303.442V203.64ZM335.092 217.933V181.569H349.438C352.185 181.569 354.528 182.061 356.47 183.043C358.423 184.014 359.908 185.393 360.926 187.18C361.956 188.956 362.471 191.045 362.471 193.448C362.471 195.863 361.95 197.94 360.909 199.68C359.867 201.408 358.358 202.734 356.381 203.657C354.416 204.581 352.037 205.042 349.243 205.042H339.637V198.863H348C349.468 198.863 350.687 198.662 351.658 198.26C352.628 197.857 353.351 197.254 353.824 196.449C354.309 195.644 354.552 194.643 354.552 193.448C354.552 192.24 354.309 191.222 353.824 190.394C353.351 189.565 352.623 188.938 351.64 188.512C350.669 188.074 349.444 187.855 347.965 187.855H342.78V217.933H335.092ZM354.73 201.385L363.767 217.933H355.28L346.438 201.385H354.73ZM399.989 194.3H392.212C392.07 193.294 391.78 192.4 391.342 191.619C390.904 190.826 390.342 190.151 389.655 189.595C388.968 189.039 388.175 188.612 387.276 188.316C386.388 188.021 385.423 187.873 384.382 187.873C382.499 187.873 380.86 188.34 379.463 189.275C378.066 190.199 376.983 191.548 376.214 193.324C375.445 195.087 375.06 197.23 375.06 199.751C375.06 202.343 375.445 204.521 376.214 206.285C376.995 208.049 378.084 209.381 379.481 210.28C380.878 211.18 382.494 211.63 384.328 211.63C385.358 211.63 386.311 211.494 387.187 211.221C388.075 210.949 388.862 210.553 389.548 210.032C390.235 209.499 390.803 208.854 391.253 208.096C391.715 207.339 392.034 206.475 392.212 205.504L399.989 205.539C399.788 207.209 399.284 208.818 398.48 210.369C397.686 211.908 396.615 213.287 395.266 214.506C393.928 215.713 392.33 216.672 390.472 217.383C388.625 218.081 386.536 218.43 384.204 218.43C380.961 218.43 378.061 217.696 375.504 216.228C372.959 214.761 370.946 212.636 369.467 209.854C367.999 207.072 367.265 203.705 367.265 199.751C367.265 195.786 368.011 192.412 369.502 189.63C370.994 186.849 373.018 184.73 375.575 183.274C378.132 181.806 381.008 181.072 384.204 181.072C386.311 181.072 388.264 181.368 390.063 181.96C391.874 182.552 393.478 183.416 394.875 184.552C396.272 185.677 397.408 187.056 398.284 188.689C399.172 190.323 399.74 192.193 399.989 194.3ZM405.502 217.933V181.569H413.19V196.573H428.797V181.569H436.468V217.933H428.797V202.912H413.19V217.933H405.502Z" fill="black"/>
<rect x="7.96478" y="165.933" width="439.339" height="68.3731" stroke="#FE527E" stroke-width="4"/>
<path d="M67.7289 281.336V263.881H79.2857V266.924H71.4192V271.083H78.5187V274.126H71.4192V281.336H67.7289ZM90.3783 263.881V281.336H86.6879V263.881H90.3783ZM112.934 263.881V281.336H109.746L102.153 270.35H102.025V281.336H98.3345V263.881H101.573L109.107 274.859H109.261V263.881H112.934ZM127.09 281.336H120.903V263.881H127.142C128.897 263.881 130.409 264.231 131.676 264.93C132.943 265.623 133.917 266.62 134.599 267.921C135.286 269.222 135.63 270.779 135.63 272.591C135.63 274.41 135.286 275.972 134.599 277.279C133.917 278.586 132.937 279.589 131.659 280.287C130.386 280.986 128.863 281.336 127.09 281.336ZM124.593 278.174H126.937C128.028 278.174 128.946 277.981 129.69 277.594C130.44 277.202 131.002 276.597 131.377 275.779C131.758 274.955 131.948 273.893 131.948 272.591C131.948 271.302 131.758 270.248 131.377 269.43C131.002 268.611 130.443 268.009 129.698 267.623C128.954 267.236 128.036 267.043 126.946 267.043H124.593V278.174ZM153.759 281.336V263.881H165.52V266.924H157.449V271.083H164.915V274.126H157.449V278.293H165.554V281.336H153.759ZM176.382 281.336H172.428L178.453 263.881H183.209L189.226 281.336H185.272L180.899 267.87H180.763L176.382 281.336ZM176.135 274.475H185.476V277.356H176.135V274.475ZM193.449 266.924V263.881H207.785V266.924H202.441V281.336H198.793V266.924H193.449ZM224.517 263.881H228.651L232.631 271.398H232.801L236.782 263.881H240.915L234.549 275.165V281.336H230.884V275.165L224.517 263.881ZM262.836 272.609C262.836 274.512 262.475 276.131 261.753 277.466C261.038 278.802 260.06 279.822 258.822 280.526C257.589 281.225 256.202 281.574 254.663 281.574C253.111 281.574 251.719 281.222 250.486 280.518C249.253 279.813 248.279 278.793 247.563 277.458C246.847 276.123 246.489 274.506 246.489 272.609C246.489 270.705 246.847 269.086 247.563 267.751C248.279 266.415 249.253 265.398 250.486 264.699C251.719 263.995 253.111 263.643 254.663 263.643C256.202 263.643 257.589 263.995 258.822 264.699C260.06 265.398 261.038 266.415 261.753 267.751C262.475 269.086 262.836 270.705 262.836 272.609ZM259.094 272.609C259.094 271.376 258.91 270.336 258.54 269.489C258.177 268.643 257.663 268.001 256.998 267.563C256.333 267.126 255.555 266.907 254.663 266.907C253.77 266.907 252.992 267.126 252.327 267.563C251.663 268.001 251.145 268.643 250.776 269.489C250.413 270.336 250.231 271.376 250.231 272.609C250.231 273.841 250.413 274.881 250.776 275.728C251.145 276.574 251.663 277.216 252.327 277.654C252.992 278.091 253.77 278.31 254.663 278.31C255.555 278.31 256.333 278.091 256.998 277.654C257.663 277.216 258.177 276.574 258.54 275.728C258.91 274.881 259.094 273.841 259.094 272.609ZM281.271 263.881H284.961V275.216C284.961 276.489 284.657 277.603 284.049 278.557C283.447 279.512 282.603 280.256 281.518 280.79C280.433 281.319 279.168 281.583 277.725 281.583C276.276 281.583 275.009 281.319 273.924 280.79C272.839 280.256 271.995 279.512 271.393 278.557C270.791 277.603 270.49 276.489 270.49 275.216V263.881H274.18V274.901C274.18 275.566 274.325 276.157 274.615 276.674C274.91 277.191 275.325 277.597 275.859 277.893C276.393 278.188 277.015 278.336 277.725 278.336C278.441 278.336 279.063 278.188 279.592 277.893C280.126 277.597 280.538 277.191 280.828 276.674C281.123 276.157 281.271 275.566 281.271 274.901V263.881ZM292.917 281.336V263.881H299.804C301.122 263.881 302.247 264.117 303.179 264.589C304.116 265.055 304.829 265.716 305.318 266.574C305.812 267.427 306.059 268.43 306.059 269.583C306.059 270.742 305.809 271.739 305.309 272.574C304.809 273.404 304.085 274.04 303.136 274.484C302.193 274.927 301.051 275.148 299.71 275.148H295.099V272.182H299.113C299.818 272.182 300.403 272.086 300.869 271.893C301.335 271.699 301.682 271.41 301.909 271.023C302.142 270.637 302.258 270.157 302.258 269.583C302.258 269.003 302.142 268.515 301.909 268.117C301.682 267.719 301.332 267.418 300.861 267.214C300.395 267.003 299.807 266.898 299.096 266.898H296.608V281.336H292.917ZM302.343 273.393L306.682 281.336H302.608L298.363 273.393H302.343ZM327.991 281.336L322.997 263.881H327.028L329.917 276.009H330.062L333.25 263.881H336.701L339.88 276.035H340.034L342.923 263.881H346.954L341.96 281.336H338.363L335.039 269.924H334.903L331.588 281.336H327.991ZM355.1 281.336H351.145L357.171 263.881H361.927L367.944 281.336H363.989L359.617 267.87H359.481L355.1 281.336ZM354.853 274.475H364.194V277.356H354.853V274.475ZM372.161 263.881H376.294L380.274 271.398H380.445L384.425 263.881H388.558L382.192 275.165V281.336H378.527V275.165L372.161 263.881Z" fill="#FE527E"/>
<path d="M67.7289 281.336H64.7289V284.336H67.7289V281.336ZM67.7289 263.881V260.881H64.7289V263.881H67.7289ZM79.2857 263.881H82.2857V260.881H79.2857V263.881ZM79.2857 266.924V269.924H82.2857V266.924H79.2857ZM71.4192 266.924V263.924H68.4192V266.924H71.4192ZM71.4192 271.083H68.4192V274.083H71.4192V271.083ZM78.5187 271.083H81.5187V268.083H78.5187V271.083ZM78.5187 274.126V277.126H81.5187V274.126H78.5187ZM71.4192 274.126V271.126H68.4192V274.126H71.4192ZM71.4192 281.336V284.336H74.4192V281.336H71.4192ZM70.7289 281.336V263.881H64.7289V281.336H70.7289ZM67.7289 266.881H79.2857V260.881H67.7289V266.881ZM76.2857 263.881V266.924H82.2857V263.881H76.2857ZM79.2857 263.924H71.4192V269.924H79.2857V263.924ZM68.4192 266.924V271.083H74.4192V266.924H68.4192ZM71.4192 274.083H78.5187V268.083H71.4192V274.083ZM75.5187 271.083V274.126H81.5187V271.083H75.5187ZM78.5187 271.126H71.4192V277.126H78.5187V271.126ZM68.4192 274.126V281.336H74.4192V274.126H68.4192ZM71.4192 278.336H67.7289V284.336H71.4192V278.336ZM90.3783 263.881H93.3783V260.881H90.3783V263.881ZM90.3783 281.336V284.336H93.3783V281.336H90.3783ZM86.6879 281.336H83.6879V284.336H86.6879V281.336ZM86.6879 263.881V260.881H83.6879V263.881H86.6879ZM87.3783 263.881V281.336H93.3783V263.881H87.3783ZM90.3783 278.336H86.6879V284.336H90.3783V278.336ZM89.6879 281.336V263.881H83.6879V281.336H89.6879ZM86.6879 266.881H90.3783V260.881H86.6879V266.881ZM112.934 263.881H115.934V260.881H112.934V263.881ZM112.934 281.336V284.336H115.934V281.336H112.934ZM109.746 281.336L107.279 283.042L108.173 284.336H109.746V281.336ZM102.153 270.35L104.621 268.644L103.726 267.35H102.153V270.35ZM102.025 270.35V267.35H99.0248V270.35H102.025ZM102.025 281.336V284.336H105.025V281.336H102.025ZM98.3345 281.336H95.3345V284.336H98.3345V281.336ZM98.3345 263.881V260.881H95.3345V263.881H98.3345ZM101.573 263.881L104.047 262.184L103.153 260.881H101.573V263.881ZM109.107 274.859L106.634 276.556L107.528 277.859H109.107V274.859ZM109.261 274.859V277.859H112.261V274.859H109.261ZM109.261 263.881V260.881H106.261V263.881H109.261ZM109.934 263.881V281.336H115.934V263.881H109.934ZM112.934 278.336H109.746V284.336H112.934V278.336ZM112.214 279.63L104.621 268.644L99.6849 272.056L107.279 283.042L112.214 279.63ZM102.153 267.35H102.025V273.35H102.153V267.35ZM99.0248 270.35V281.336H105.025V270.35H99.0248ZM102.025 278.336H98.3345V284.336H102.025V278.336ZM101.335 281.336V263.881H95.3345V281.336H101.335ZM98.3345 266.881H101.573V260.881H98.3345V266.881ZM99.0997 265.579L106.634 276.556L111.581 273.161L104.047 262.184L99.0997 265.579ZM109.107 277.859H109.261V271.859H109.107V277.859ZM112.261 274.859V263.881H106.261V274.859H112.261ZM109.261 266.881H112.934V260.881H109.261V266.881ZM120.903 281.336H117.903V284.336H120.903V281.336ZM120.903 263.881V260.881H117.903V263.881H120.903ZM131.676 264.93L130.227 267.556L130.236 267.561L131.676 264.93ZM134.599 267.921L131.942 269.313L131.946 269.323L134.599 267.921ZM134.599 277.279L131.944 275.882L131.939 275.891L134.599 277.279ZM131.659 280.287L130.22 277.655L130.215 277.658L131.659 280.287ZM124.593 278.174H121.593V281.174H124.593V278.174ZM129.69 277.594L131.072 280.257L131.08 280.253L129.69 277.594ZM131.377 275.779L128.654 274.521L128.65 274.529L131.377 275.779ZM131.377 269.43L128.65 270.679L128.654 270.687L128.657 270.695L131.377 269.43ZM129.698 267.623L131.081 264.96L131.081 264.96L129.698 267.623ZM124.593 267.043V264.043H121.593V267.043H124.593ZM127.09 278.336H120.903V284.336H127.09V278.336ZM123.903 281.336V263.881H117.903V281.336H123.903ZM120.903 266.881H127.142V260.881H120.903V266.881ZM127.142 266.881C128.498 266.881 129.489 267.149 130.227 267.556L133.125 262.303C131.328 261.312 129.297 260.881 127.142 260.881V266.881ZM130.236 267.561C130.974 267.965 131.53 268.527 131.942 269.313L137.256 266.529C136.305 264.713 134.911 263.28 133.116 262.298L130.236 267.561ZM131.946 269.323C132.359 270.103 132.63 271.156 132.63 272.591H138.63C138.63 270.402 138.214 268.341 137.251 266.519L131.946 269.323ZM132.63 272.591C132.63 274.034 132.358 275.095 131.944 275.882L137.254 278.676C138.215 276.85 138.63 274.785 138.63 272.591H132.63ZM131.939 275.891C131.529 276.678 130.97 277.245 130.22 277.655L133.098 282.92C134.904 281.933 136.306 280.494 137.259 278.667L131.939 275.891ZM130.215 277.658C129.472 278.066 128.469 278.336 127.09 278.336V284.336C129.257 284.336 131.3 283.907 133.103 282.917L130.215 277.658ZM124.593 281.174H126.937V275.174H124.593V281.174ZM126.937 281.174C128.369 281.174 129.792 280.922 131.072 280.257L128.308 274.932C128.099 275.04 127.687 275.174 126.937 275.174V281.174ZM131.08 280.253C132.458 279.532 133.471 278.411 134.105 277.029L128.65 274.529C128.534 274.783 128.422 274.872 128.3 274.936L131.08 280.253ZM134.101 277.037C134.725 275.686 134.948 274.153 134.948 272.591H128.948C128.948 273.633 128.791 274.224 128.654 274.521L134.101 277.037ZM134.948 272.591C134.948 271.039 134.724 269.511 134.097 268.164L128.657 270.695C128.792 270.985 128.948 271.565 128.948 272.591H134.948ZM134.105 268.18C133.473 266.801 132.463 265.678 131.081 264.96L128.316 270.285C128.423 270.341 128.532 270.421 128.65 270.679L134.105 268.18ZM131.081 264.96C129.8 264.296 128.378 264.043 126.946 264.043V270.043C127.695 270.043 128.108 270.177 128.316 270.285L131.081 264.96ZM126.946 264.043H124.593V270.043H126.946V264.043ZM121.593 267.043V278.174H127.593V267.043H121.593ZM153.759 281.336H150.759V284.336H153.759V281.336ZM153.759 263.881V260.881H150.759V263.881H153.759ZM165.52 263.881H168.52V260.881H165.52V263.881ZM165.52 266.924V269.924H168.52V266.924H165.52ZM157.449 266.924V263.924H154.449V266.924H157.449ZM157.449 271.083H154.449V274.083H157.449V271.083ZM164.915 271.083H167.915V268.083H164.915V271.083ZM164.915 274.126V277.126H167.915V274.126H164.915ZM157.449 274.126V271.126H154.449V274.126H157.449ZM157.449 278.293H154.449V281.293H157.449V278.293ZM165.554 278.293H168.554V275.293H165.554V278.293ZM165.554 281.336V284.336H168.554V281.336H165.554ZM156.759 281.336V263.881H150.759V281.336H156.759ZM153.759 266.881H165.52V260.881H153.759V266.881ZM162.52 263.881V266.924H168.52V263.881H162.52ZM165.52 263.924H157.449V269.924H165.52V263.924ZM154.449 266.924V271.083H160.449V266.924H154.449ZM157.449 274.083H164.915V268.083H157.449V274.083ZM161.915 271.083V274.126H167.915V271.083H161.915ZM164.915 271.126H157.449V277.126H164.915V271.126ZM154.449 274.126V278.293H160.449V274.126H154.449ZM157.449 281.293H165.554V275.293H157.449V281.293ZM162.554 278.293V281.336H168.554V278.293H162.554ZM165.554 278.336H153.759V284.336H165.554V278.336ZM176.382 281.336V284.336H178.561L179.235 282.264L176.382 281.336ZM172.428 281.336L169.592 280.357L168.218 284.336H172.428V281.336ZM178.453 263.881V260.881H176.315L175.618 262.902L178.453 263.881ZM183.209 263.881L186.045 262.904L185.348 260.881H183.209V263.881ZM189.226 281.336V284.336H193.434L192.062 280.358L189.226 281.336ZM185.272 281.336L182.418 282.262L183.091 284.336H185.272V281.336ZM180.899 267.87L183.753 266.943L183.08 264.87H180.899V267.87ZM180.763 267.87V264.87H178.584L177.91 266.942L180.763 267.87ZM176.135 274.475V271.475H173.135V274.475H176.135ZM185.476 274.475H188.476V271.475H185.476V274.475ZM185.476 277.356V280.356H188.476V277.356H185.476ZM176.135 277.356H173.135V280.356H176.135V277.356ZM176.382 278.336H172.428V284.336H176.382V278.336ZM175.264 282.315L181.289 264.86L175.618 262.902L169.592 280.357L175.264 282.315ZM178.453 266.881H183.209V260.881H178.453V266.881ZM180.373 264.859L186.39 282.314L192.062 280.358L186.045 262.904L180.373 264.859ZM189.226 278.336H185.272V284.336H189.226V278.336ZM188.125 280.409L183.753 266.943L178.046 268.796L182.418 282.262L188.125 280.409ZM180.899 264.87H180.763V270.87H180.899V264.87ZM177.91 266.942L173.53 280.408L179.235 282.264L183.616 268.798L177.91 266.942ZM176.135 277.475H185.476V271.475H176.135V277.475ZM182.476 274.475V277.356H188.476V274.475H182.476ZM185.476 274.356H176.135V280.356H185.476V274.356ZM179.135 277.356V274.475H173.135V277.356H179.135ZM193.449 266.924H190.449V269.924H193.449V266.924ZM193.449 263.881V260.881H190.449V263.881H193.449ZM207.785 263.881H210.785V260.881H207.785V263.881ZM207.785 266.924V269.924H210.785V266.924H207.785ZM202.441 266.924V263.924H199.441V266.924H202.441ZM202.441 281.336V284.336H205.441V281.336H202.441ZM198.793 281.336H195.793V284.336H198.793V281.336ZM198.793 266.924H201.793V263.924H198.793V266.924ZM196.449 266.924V263.881H190.449V266.924H196.449ZM193.449 266.881H207.785V260.881H193.449V266.881ZM204.785 263.881V266.924H210.785V263.881H204.785ZM207.785 263.924H202.441V269.924H207.785V263.924ZM199.441 266.924V281.336H205.441V266.924H199.441ZM202.441 278.336H198.793V284.336H202.441V278.336ZM201.793 281.336V266.924H195.793V281.336H201.793ZM198.793 263.924H193.449V269.924H198.793V263.924ZM224.517 263.881V260.881H219.38L221.905 265.355L224.517 263.881ZM228.651 263.881L231.302 262.477L230.457 260.881H228.651V263.881ZM232.631 271.398L229.98 272.802L230.825 274.398H232.631V271.398ZM232.801 271.398V274.398H234.608L235.453 272.802L232.801 271.398ZM236.782 263.881V260.881H234.975L234.13 262.477L236.782 263.881ZM240.915 263.881L243.528 265.355L246.052 260.881H240.915V263.881ZM234.549 275.165L231.936 273.691L231.549 274.377V275.165H234.549ZM234.549 281.336V284.336H237.549V281.336H234.549ZM230.884 281.336H227.884V284.336H230.884V281.336ZM230.884 275.165H233.884V274.377L233.497 273.691L230.884 275.165ZM224.517 266.881H228.651V260.881H224.517V266.881ZM226 265.285L229.98 272.802L235.282 269.994L231.302 262.477L226 265.285ZM232.631 274.398H232.801V268.398H232.631V274.398ZM235.453 272.802L239.433 265.285L234.13 262.477L230.15 269.994L235.453 272.802ZM236.782 266.881H240.915V260.881H236.782V266.881ZM238.302 262.407L231.936 273.691L237.161 276.639L243.528 265.355L238.302 262.407ZM231.549 275.165V281.336H237.549V275.165H231.549ZM234.549 278.336H230.884V284.336H234.549V278.336ZM233.884 281.336V275.165H227.884V281.336H233.884ZM233.497 273.691L227.13 262.407L221.905 265.355L228.271 276.639L233.497 273.691ZM261.753 277.466L259.114 276.04L259.11 276.049L261.753 277.466ZM258.822 280.526L260.301 283.136L260.305 283.134L258.822 280.526ZM250.486 280.518L251.975 277.913L250.486 280.518ZM247.563 277.458L244.919 278.876L244.919 278.876L247.563 277.458ZM247.563 267.751L250.207 269.168L250.207 269.168L247.563 267.751ZM250.486 264.699L251.966 267.309L251.975 267.304L250.486 264.699ZM258.822 264.699L257.333 267.304L257.34 267.308L257.347 267.312L258.822 264.699ZM261.753 267.751L259.11 269.168L259.114 269.177L261.753 267.751ZM258.54 269.489L255.784 270.673L255.787 270.681L255.791 270.689L258.54 269.489ZM256.998 267.563L255.349 270.069L255.349 270.069L256.998 267.563ZM252.327 267.563L253.977 270.069L253.977 270.069L252.327 267.563ZM250.776 269.489L248.026 268.29L248.023 268.297L248.02 268.305L250.776 269.489ZM250.776 275.728L248.02 276.912L248.023 276.92L248.026 276.927L250.776 275.728ZM252.327 277.654L253.977 275.148L253.977 275.148L252.327 277.654ZM256.998 277.654L255.349 275.148L255.349 275.148L256.998 277.654ZM258.54 275.728L255.791 274.528L255.787 274.536L255.784 274.544L258.54 275.728ZM259.836 272.609C259.836 274.138 259.546 275.241 259.114 276.04L264.393 278.893C265.404 277.022 265.836 274.886 265.836 272.609H259.836ZM259.11 276.049C258.643 276.919 258.054 277.511 257.338 277.918L260.305 283.134C262.066 282.132 263.432 280.684 264.397 278.884L259.11 276.049ZM257.342 277.916C256.599 278.338 255.73 278.574 254.663 278.574V284.574C256.675 284.574 258.578 284.112 260.301 283.136L257.342 277.916ZM254.663 278.574C253.584 278.574 252.713 278.335 251.975 277.913L248.998 283.122C250.725 284.109 252.639 284.574 254.663 284.574V278.574ZM251.975 277.913C251.264 277.507 250.675 276.914 250.207 276.04L244.919 278.876C245.883 280.672 247.243 282.119 248.998 283.122L251.975 277.913ZM250.207 276.04C249.777 275.238 249.489 274.134 249.489 272.609H243.489C243.489 274.878 243.918 277.008 244.919 278.876L250.207 276.04ZM249.489 272.609C249.489 271.075 249.777 269.97 250.207 269.168L244.919 266.333C243.917 268.202 243.489 270.335 243.489 272.609H249.489ZM250.207 269.168C250.674 268.296 251.26 267.709 251.966 267.309L249.007 262.09C247.247 263.087 245.884 264.534 244.919 266.333L250.207 269.168ZM251.975 267.304C252.713 266.882 253.584 266.643 254.663 266.643V260.643C252.639 260.643 250.725 261.108 248.998 262.095L251.975 267.304ZM254.663 266.643C255.726 266.643 256.591 266.88 257.333 267.304L260.31 262.095C258.586 261.11 256.679 260.643 254.663 260.643V266.643ZM257.347 267.312C258.058 267.713 258.644 268.3 259.11 269.168L264.397 266.333C263.431 264.531 262.063 263.083 260.296 262.087L257.347 267.312ZM259.114 269.177C259.546 269.976 259.836 271.079 259.836 272.609H265.836C265.836 270.331 265.404 268.195 264.393 266.324L259.114 269.177ZM262.094 272.609C262.094 271.094 261.87 269.619 261.29 268.29L255.791 270.689C255.95 271.053 256.094 271.657 256.094 272.609H262.094ZM261.297 268.305C260.739 267.006 259.876 265.866 258.647 265.057L255.349 270.069C255.449 270.135 255.615 270.279 255.784 270.673L261.297 268.305ZM258.647 265.057C257.435 264.259 256.067 263.907 254.663 263.907V269.907C255.042 269.907 255.231 269.992 255.349 270.069L258.647 265.057ZM254.663 263.907C253.258 263.907 251.89 264.259 250.678 265.057L253.977 270.069C254.094 269.992 254.283 269.907 254.663 269.907V263.907ZM250.678 265.057C249.454 265.863 248.59 266.998 248.026 268.29L253.526 270.689C253.701 270.288 253.872 270.138 253.977 270.069L250.678 265.057ZM248.02 268.305C247.451 269.629 247.231 271.099 247.231 272.609H253.231C253.231 271.652 253.374 271.042 253.533 270.673L248.02 268.305ZM247.231 272.609C247.231 274.118 247.451 275.588 248.02 276.912L253.533 274.544C253.374 274.175 253.231 273.565 253.231 272.609H247.231ZM248.026 276.927C248.59 278.219 249.454 279.354 250.678 280.16L253.977 275.148C253.872 275.079 253.701 274.93 253.526 274.528L248.026 276.927ZM250.678 280.16C251.89 280.958 253.258 281.31 254.663 281.31V275.31C254.283 275.31 254.094 275.225 253.977 275.148L250.678 280.16ZM254.663 281.31C256.067 281.31 257.435 280.958 258.647 280.16L255.349 275.148C255.231 275.225 255.042 275.31 254.663 275.31V281.31ZM258.647 280.16C259.876 279.351 260.739 278.211 261.297 276.912L255.784 274.544C255.615 274.938 255.449 275.082 255.349 275.148L258.647 280.16ZM261.29 276.927C261.87 275.598 262.094 274.123 262.094 272.609H256.094C256.094 273.56 255.95 274.164 255.791 274.528L261.29 276.927ZM281.271 263.881V260.881H278.271V263.881H281.271ZM284.961 263.881H287.961V260.881H284.961V263.881ZM284.049 278.557L281.519 276.946L281.512 276.957L284.049 278.557ZM281.518 280.79L282.831 283.488L282.843 283.482L281.518 280.79ZM273.924 280.79L272.599 283.482L272.611 283.488L273.924 280.79ZM271.393 278.557L268.856 280.158L268.856 280.158L271.393 278.557ZM270.49 263.881V260.881H267.49V263.881H270.49ZM274.18 263.881H277.18V260.881H274.18V263.881ZM274.615 276.674L271.997 278.141L272.004 278.151L272.01 278.162L274.615 276.674ZM275.859 277.893L274.407 280.518L274.407 280.518L275.859 277.893ZM279.592 277.893L278.14 275.267L278.128 275.274L279.592 277.893ZM280.828 276.674L278.223 275.185L278.217 275.196L278.211 275.207L280.828 276.674ZM281.271 266.881H284.961V260.881H281.271V266.881ZM281.961 263.881V275.216H287.961V263.881H281.961ZM281.961 275.216C281.961 275.992 281.783 276.531 281.519 276.946L286.58 280.169C287.531 278.675 287.961 276.987 287.961 275.216H281.961ZM281.512 276.957C281.227 277.409 280.818 277.791 280.193 278.099L282.843 283.482C284.388 282.721 285.667 281.615 286.586 280.158L281.512 276.957ZM280.205 278.093C279.601 278.387 278.801 278.583 277.725 278.583V284.583C279.535 284.583 281.264 284.25 282.831 283.488L280.205 278.093ZM277.725 278.583C276.641 278.583 275.84 278.386 275.237 278.093L272.611 283.488C274.179 284.251 275.911 284.583 277.725 284.583V278.583ZM275.249 278.099C274.624 277.791 274.215 277.409 273.93 276.957L268.856 280.158C269.775 281.615 271.054 282.721 272.599 283.482L275.249 278.099ZM273.93 276.957C273.668 276.54 273.49 275.997 273.49 275.216H267.49C267.49 276.981 267.914 278.665 268.856 280.158L273.93 276.957ZM273.49 275.216V263.881H267.49V275.216H273.49ZM270.49 266.881H274.18V260.881H270.49V266.881ZM271.18 263.881V274.901H277.18V263.881H271.18ZM271.18 274.901C271.18 276.016 271.427 277.123 271.997 278.141L277.232 275.207C277.222 275.191 277.18 275.116 277.18 274.901H271.18ZM272.01 278.162C272.585 279.169 273.404 279.963 274.407 280.518L277.311 275.268C277.268 275.244 277.251 275.228 277.246 275.223C277.242 275.219 277.233 275.21 277.219 275.185L272.01 278.162ZM274.407 280.518C275.453 281.097 276.591 281.336 277.725 281.336V275.336C277.439 275.336 277.333 275.279 277.311 275.268L274.407 280.518ZM277.725 281.336C278.86 281.336 280.005 281.099 281.056 280.511L278.128 275.274C278.122 275.277 278.022 275.336 277.725 275.336V281.336ZM281.044 280.518C282.051 279.96 282.873 279.16 283.445 278.141L278.211 275.207C278.205 275.218 278.201 275.223 278.199 275.226C278.197 275.228 278.196 275.229 278.195 275.23C278.194 275.231 278.18 275.245 278.14 275.268L281.044 280.518ZM283.432 278.162C284.016 277.141 284.271 276.026 284.271 274.901H278.271C278.271 275.106 278.23 275.173 278.223 275.185L283.432 278.162ZM284.271 274.901V263.881H278.271V274.901H284.271ZM292.917 281.336H289.917V284.336H292.917V281.336ZM292.917 263.881V260.881H289.917V263.881H292.917ZM303.179 264.589L301.824 267.265L301.834 267.27L301.844 267.275L303.179 264.589ZM305.318 266.574L302.711 268.059L302.717 268.069L302.723 268.08L305.318 266.574ZM305.309 272.574L307.879 274.123L307.883 274.115L305.309 272.574ZM303.136 274.484L301.867 271.765L301.86 271.768L303.136 274.484ZM295.099 275.148H292.099V278.148H295.099V275.148ZM295.099 272.182V269.182H292.099V272.182H295.099ZM300.869 271.893L302.018 274.664L302.018 274.664L300.869 271.893ZM301.909 271.023L299.34 269.474L299.331 269.488L299.323 269.502L301.909 271.023ZM301.909 268.117L299.304 269.605L299.312 269.619L299.32 269.633L301.909 268.117ZM300.861 267.214L299.627 269.948L299.647 269.957L299.667 269.966L300.861 267.214ZM296.608 266.898V263.898H293.608V266.898H296.608ZM296.608 281.336V284.336H299.608V281.336H296.608ZM302.343 273.393L304.976 271.955L304.123 270.393H302.343V273.393ZM306.682 281.336V284.336H311.738L309.314 279.898L306.682 281.336ZM302.608 281.336L299.962 282.75L300.809 284.336H302.608V281.336ZM298.363 273.393V270.393H293.359L295.717 274.806L298.363 273.393ZM295.917 281.336V263.881H289.917V281.336H295.917ZM292.917 266.881H299.804V260.881H292.917V266.881ZM299.804 266.881C300.771 266.881 301.408 267.055 301.824 267.265L304.533 261.912C303.086 261.179 301.472 260.881 299.804 260.881V266.881ZM301.844 267.275C302.281 267.493 302.536 267.751 302.711 268.059L307.925 265.09C307.123 263.682 305.951 262.616 304.514 261.902L301.844 267.275ZM302.723 268.08C302.91 268.402 303.059 268.867 303.059 269.583H309.059C309.059 267.992 308.715 266.452 307.913 265.069L302.723 268.08ZM303.059 269.583C303.059 270.304 302.908 270.746 302.735 271.034L307.883 274.115C308.711 272.733 309.059 271.181 309.059 269.583H303.059ZM302.74 271.026C302.573 271.303 302.322 271.553 301.867 271.765L304.406 277.202C305.848 276.528 307.046 275.505 307.879 274.123L302.74 271.026ZM301.86 271.768C301.414 271.978 300.732 272.148 299.71 272.148V278.148C301.37 278.148 302.972 277.875 304.412 277.199L301.86 271.768ZM299.71 272.148H295.099V278.148H299.71V272.148ZM298.099 275.148V272.182H292.099V275.148H298.099ZM295.099 275.182H299.113V269.182H295.099V275.182ZM299.113 275.182C300.067 275.182 301.074 275.055 302.018 274.664L299.72 269.121C299.732 269.116 299.569 269.182 299.113 269.182V275.182ZM302.018 274.664C303.007 274.254 303.896 273.562 304.495 272.544L299.323 269.502C299.385 269.397 299.466 269.303 299.554 269.229C299.639 269.158 299.705 269.128 299.72 269.121L302.018 274.664ZM304.478 272.572C305.06 271.607 305.258 270.556 305.258 269.583H299.258C299.258 269.669 299.249 269.691 299.255 269.666C299.262 269.638 299.284 269.566 299.34 269.474L304.478 272.572ZM305.258 269.583C305.258 268.606 305.061 267.563 304.497 266.601L299.32 269.633C299.298 269.595 299.282 269.561 299.271 269.533C299.26 269.505 299.255 269.486 299.253 269.477C299.249 269.462 299.258 269.492 299.258 269.583H305.258ZM304.514 266.629C303.926 265.6 303.044 264.891 302.054 264.461L299.667 269.966C299.656 269.961 299.597 269.934 299.518 269.865C299.436 269.795 299.361 269.705 299.304 269.605L304.514 266.629ZM302.094 264.479C301.121 264.04 300.077 263.898 299.096 263.898V269.898C299.306 269.898 299.451 269.914 299.542 269.93C299.633 269.946 299.653 269.96 299.627 269.948L302.094 264.479ZM299.096 263.898H296.608V269.898H299.096V263.898ZM293.608 266.898V281.336H299.608V266.898H293.608ZM296.608 278.336H292.917V284.336H296.608V278.336ZM299.711 274.831L304.049 282.774L309.314 279.898L304.976 271.955L299.711 274.831ZM306.682 278.336H302.608V284.336H306.682V278.336ZM305.254 279.922L301.009 271.979L295.717 274.806L299.962 282.75L305.254 279.922ZM298.363 276.393H302.343V270.393H298.363V276.393ZM327.991 281.336L325.107 282.161L325.729 284.336H327.991V281.336ZM322.997 263.881V260.881H319.018L320.112 264.707L322.997 263.881ZM327.028 263.881L329.946 263.186L329.397 260.881H327.028V263.881ZM329.917 276.009L326.999 276.704L327.548 279.009H329.917V276.009ZM330.062 276.009V279.009H332.375L332.963 276.772L330.062 276.009ZM333.25 263.881V260.881H330.936L330.348 263.119L333.25 263.881ZM336.701 263.881L339.604 263.122L339.017 260.881H336.701V263.881ZM339.88 276.035L336.978 276.794L337.564 279.035H339.88V276.035ZM340.034 276.035V279.035H342.404L342.952 276.728L340.034 276.035ZM342.923 263.881V260.881H340.552L340.004 263.187L342.923 263.881ZM346.954 263.881L349.838 264.707L350.933 260.881H346.954V263.881ZM341.96 281.336V284.336H344.222L344.844 282.161L341.96 281.336ZM338.363 281.336L335.483 282.175L336.112 284.336H338.363V281.336ZM335.039 269.924L337.92 269.085L337.29 266.924H335.039V269.924ZM334.903 269.924V266.924H332.65L332.022 269.087L334.903 269.924ZM331.588 281.336V284.336H333.84L334.468 282.173L331.588 281.336ZM330.875 280.511L325.881 263.056L320.112 264.707L325.107 282.161L330.875 280.511ZM322.997 266.881H327.028V260.881H322.997V266.881ZM324.11 264.576L326.999 276.704L332.835 275.314L329.946 263.186L324.11 264.576ZM329.917 279.009H330.062V273.009H329.917V279.009ZM332.963 276.772L336.151 264.644L330.348 263.119L327.161 275.247L332.963 276.772ZM333.25 266.881H336.701V260.881H333.25V266.881ZM333.799 264.64L336.978 276.794L342.783 275.275L339.604 263.122L333.799 264.64ZM339.88 279.035H340.034V273.035H339.88V279.035ZM342.952 276.728L345.841 264.575L340.004 263.187L337.115 275.341L342.952 276.728ZM342.923 266.881H346.954V260.881H342.923V266.881ZM344.07 263.056L339.076 280.511L344.844 282.161L349.838 264.707L344.07 263.056ZM341.96 278.336H338.363V284.336H341.96V278.336ZM341.243 280.497L337.92 269.085L332.159 270.763L335.483 282.175L341.243 280.497ZM335.039 266.924H334.903V272.924H335.039V266.924ZM332.022 269.087L328.707 280.499L334.468 282.173L337.784 270.761L332.022 269.087ZM331.588 278.336H327.991V284.336H331.588V278.336ZM355.1 281.336V284.336H357.279L357.953 282.264L355.1 281.336ZM351.145 281.336L348.31 280.357L346.936 284.336H351.145V281.336ZM357.171 263.881V260.881H355.033L354.335 262.902L357.171 263.881ZM361.927 263.881L364.763 262.904L364.066 260.881H361.927V263.881ZM367.944 281.336V284.336H372.151L370.78 280.358L367.944 281.336ZM363.989 281.336L361.136 282.262L361.809 284.336H363.989V281.336ZM359.617 267.87L362.47 266.943L361.797 264.87H359.617V267.87ZM359.481 267.87V264.87H357.302L356.628 266.942L359.481 267.87ZM354.853 274.475V271.475H351.853V274.475H354.853ZM364.194 274.475H367.194V271.475H364.194V274.475ZM364.194 277.356V280.356H367.194V277.356H364.194ZM354.853 277.356H351.853V280.356H354.853V277.356ZM355.1 278.336H351.145V284.336H355.1V278.336ZM353.981 282.315L360.007 264.86L354.335 262.902L348.31 280.357L353.981 282.315ZM357.171 266.881H361.927V260.881H357.171V266.881ZM359.09 264.859L365.107 282.314L370.78 280.358L364.763 262.904L359.09 264.859ZM367.944 278.336H363.989V284.336H367.944V278.336ZM366.842 280.409L362.47 266.943L356.764 268.796L361.136 282.262L366.842 280.409ZM359.617 264.87H359.481V270.87H359.617V264.87ZM356.628 266.942L352.247 280.408L357.953 282.264L362.333 268.798L356.628 266.942ZM354.853 277.475H364.194V271.475H354.853V277.475ZM361.194 274.475V277.356H367.194V274.475H361.194ZM364.194 274.356H354.853V280.356H364.194V274.356ZM357.853 277.356V274.475H351.853V277.356H357.853ZM372.161 263.881V260.881H367.023L369.548 265.355L372.161 263.881ZM376.294 263.881L378.945 262.477L378.1 260.881H376.294V263.881ZM380.274 271.398L377.623 272.802L378.468 274.398H380.274V271.398ZM380.445 271.398V274.398H382.251L383.096 272.802L380.445 271.398ZM384.425 263.881V260.881H382.619L381.773 262.477L384.425 263.881ZM388.558 263.881L391.171 265.355L393.695 260.881H388.558V263.881ZM382.192 275.165L379.579 273.691L379.192 274.377V275.165H382.192ZM382.192 281.336V284.336H385.192V281.336H382.192ZM378.527 281.336H375.527V284.336H378.527V281.336ZM378.527 275.165H381.527V274.377L381.14 273.691L378.527 275.165ZM372.161 266.881H376.294V260.881H372.161V266.881ZM373.643 265.285L377.623 272.802L382.925 269.994L378.945 262.477L373.643 265.285ZM380.274 274.398H380.445V268.398H380.274V274.398ZM383.096 272.802L387.076 265.285L381.773 262.477L377.793 269.994L383.096 272.802ZM384.425 266.881H388.558V260.881H384.425V266.881ZM385.945 262.407L379.579 273.691L384.805 276.639L391.171 265.355L385.945 262.407ZM379.192 275.165V281.336H385.192V275.165H379.192ZM382.192 278.336H378.527V284.336H382.192V278.336ZM381.527 281.336V275.165H375.527V281.336H381.527ZM381.14 273.691L374.773 262.407L369.548 265.355L375.914 276.639L381.14 273.691Z" fill="#FF8C00"/>
<path d="M67.7289 281.336H64.7289V284.336H67.7289V281.336ZM67.7289 263.881V260.881H64.7289V263.881H67.7289ZM79.2857 263.881H82.2857V260.881H79.2857V263.881ZM79.2857 266.924V269.924H82.2857V266.924H79.2857ZM71.4192 266.924V263.924H68.4192V266.924H71.4192ZM71.4192 271.083H68.4192V274.083H71.4192V271.083ZM78.5187 271.083H81.5187V268.083H78.5187V271.083ZM78.5187 274.126V277.126H81.5187V274.126H78.5187ZM71.4192 274.126V271.126H68.4192V274.126H71.4192ZM71.4192 281.336V284.336H74.4192V281.336H71.4192ZM70.7289 281.336V263.881H64.7289V281.336H70.7289ZM67.7289 266.881H79.2857V260.881H67.7289V266.881ZM76.2857 263.881V266.924H82.2857V263.881H76.2857ZM79.2857 263.924H71.4192V269.924H79.2857V263.924ZM68.4192 266.924V271.083H74.4192V266.924H68.4192ZM71.4192 274.083H78.5187V268.083H71.4192V274.083ZM75.5187 271.083V274.126H81.5187V271.083H75.5187ZM78.5187 271.126H71.4192V277.126H78.5187V271.126ZM68.4192 274.126V281.336H74.4192V274.126H68.4192ZM71.4192 278.336H67.7289V284.336H71.4192V278.336ZM90.3783 263.881H93.3783V260.881H90.3783V263.881ZM90.3783 281.336V284.336H93.3783V281.336H90.3783ZM86.6879 281.336H83.6879V284.336H86.6879V281.336ZM86.6879 263.881V260.881H83.6879V263.881H86.6879ZM87.3783 263.881V281.336H93.3783V263.881H87.3783ZM90.3783 278.336H86.6879V284.336H90.3783V278.336ZM89.6879 281.336V263.881H83.6879V281.336H89.6879ZM86.6879 266.881H90.3783V260.881H86.6879V266.881ZM112.934 263.881H115.934V260.881H112.934V263.881ZM112.934 281.336V284.336H115.934V281.336H112.934ZM109.746 281.336L107.279 283.042L108.173 284.336H109.746V281.336ZM102.153 270.35L104.621 268.644L103.726 267.35H102.153V270.35ZM102.025 270.35V267.35H99.0248V270.35H102.025ZM102.025 281.336V284.336H105.025V281.336H102.025ZM98.3345 281.336H95.3345V284.336H98.3345V281.336ZM98.3345 263.881V260.881H95.3345V263.881H98.3345ZM101.573 263.881L104.047 262.184L103.153 260.881H101.573V263.881ZM109.107 274.859L106.634 276.556L107.528 277.859H109.107V274.859ZM109.261 274.859V277.859H112.261V274.859H109.261ZM109.261 263.881V260.881H106.261V263.881H109.261ZM109.934 263.881V281.336H115.934V263.881H109.934ZM112.934 278.336H109.746V284.336H112.934V278.336ZM112.214 279.63L104.621 268.644L99.6849 272.056L107.279 283.042L112.214 279.63ZM102.153 267.35H102.025V273.35H102.153V267.35ZM99.0248 270.35V281.336H105.025V270.35H99.0248ZM102.025 278.336H98.3345V284.336H102.025V278.336ZM101.335 281.336V263.881H95.3345V281.336H101.335ZM98.3345 266.881H101.573V260.881H98.3345V266.881ZM99.0997 265.579L106.634 276.556L111.581 273.161L104.047 262.184L99.0997 265.579ZM109.107 277.859H109.261V271.859H109.107V277.859ZM112.261 274.859V263.881H106.261V274.859H112.261ZM109.261 266.881H112.934V260.881H109.261V266.881ZM120.903 281.336H117.903V284.336H120.903V281.336ZM120.903 263.881V260.881H117.903V263.881H120.903ZM131.676 264.93L130.227 267.556L130.236 267.561L131.676 264.93ZM134.599 267.921L131.942 269.313L131.946 269.323L134.599 267.921ZM134.599 277.279L131.944 275.882L131.939 275.891L134.599 277.279ZM131.659 280.287L130.22 277.655L130.215 277.658L131.659 280.287ZM124.593 278.174H121.593V281.174H124.593V278.174ZM129.69 277.594L131.072 280.257L131.08 280.253L129.69 277.594ZM131.377 275.779L128.654 274.521L128.65 274.529L131.377 275.779ZM131.377 269.43L128.65 270.679L128.654 270.687L128.657 270.695L131.377 269.43ZM129.698 267.623L131.081 264.96L131.081 264.96L129.698 267.623ZM124.593 267.043V264.043H121.593V267.043H124.593ZM127.09 278.336H120.903V284.336H127.09V278.336ZM123.903 281.336V263.881H117.903V281.336H123.903ZM120.903 266.881H127.142V260.881H120.903V266.881ZM127.142 266.881C128.498 266.881 129.489 267.149 130.227 267.556L133.125 262.303C131.328 261.312 129.297 260.881 127.142 260.881V266.881ZM130.236 267.561C130.974 267.965 131.53 268.527 131.942 269.313L137.256 266.529C136.305 264.713 134.911 263.28 133.116 262.298L130.236 267.561ZM131.946 269.323C132.359 270.103 132.63 271.156 132.63 272.591H138.63C138.63 270.402 138.214 268.341 137.251 266.519L131.946 269.323ZM132.63 272.591C132.63 274.034 132.358 275.095 131.944 275.882L137.254 278.676C138.215 276.85 138.63 274.785 138.63 272.591H132.63ZM131.939 275.891C131.529 276.678 130.97 277.245 130.22 277.655L133.098 282.92C134.904 281.933 136.306 280.494 137.259 278.667L131.939 275.891ZM130.215 277.658C129.472 278.066 128.469 278.336 127.09 278.336V284.336C129.257 284.336 131.3 283.907 133.103 282.917L130.215 277.658ZM124.593 281.174H126.937V275.174H124.593V281.174ZM126.937 281.174C128.369 281.174 129.792 280.922 131.072 280.257L128.308 274.932C128.099 275.04 127.687 275.174 126.937 275.174V281.174ZM131.08 280.253C132.458 279.532 133.471 278.411 134.105 277.029L128.65 274.529C128.534 274.783 128.422 274.872 128.3 274.936L131.08 280.253ZM134.101 277.037C134.725 275.686 134.948 274.153 134.948 272.591H128.948C128.948 273.633 128.791 274.224 128.654 274.521L134.101 277.037ZM134.948 272.591C134.948 271.039 134.724 269.511 134.097 268.164L128.657 270.695C128.792 270.985 128.948 271.565 128.948 272.591H134.948ZM134.105 268.18C133.473 266.801 132.463 265.678 131.081 264.96L128.316 270.285C128.423 270.341 128.532 270.421 128.65 270.679L134.105 268.18ZM131.081 264.96C129.8 264.296 128.378 264.043 126.946 264.043V270.043C127.695 270.043 128.108 270.177 128.316 270.285L131.081 264.96ZM126.946 264.043H124.593V270.043H126.946V264.043ZM121.593 267.043V278.174H127.593V267.043H121.593ZM153.759 281.336H150.759V284.336H153.759V281.336ZM153.759 263.881V260.881H150.759V263.881H153.759ZM165.52 263.881H168.52V260.881H165.52V263.881ZM165.52 266.924V269.924H168.52V266.924H165.52ZM157.449 266.924V263.924H154.449V266.924H157.449ZM157.449 271.083H154.449V274.083H157.449V271.083ZM164.915 271.083H167.915V268.083H164.915V271.083ZM164.915 274.126V277.126H167.915V274.126H164.915ZM157.449 274.126V271.126H154.449V274.126H157.449ZM157.449 278.293H154.449V281.293H157.449V278.293ZM165.554 278.293H168.554V275.293H165.554V278.293ZM165.554 281.336V284.336H168.554V281.336H165.554ZM156.759 281.336V263.881H150.759V281.336H156.759ZM153.759 266.881H165.52V260.881H153.759V266.881ZM162.52 263.881V266.924H168.52V263.881H162.52ZM165.52 263.924H157.449V269.924H165.52V263.924ZM154.449 266.924V271.083H160.449V266.924H154.449ZM157.449 274.083H164.915V268.083H157.449V274.083ZM161.915 271.083V274.126H167.915V271.083H161.915ZM164.915 271.126H157.449V277.126H164.915V271.126ZM154.449 274.126V278.293H160.449V274.126H154.449ZM157.449 281.293H165.554V275.293H157.449V281.293ZM162.554 278.293V281.336H168.554V278.293H162.554ZM165.554 278.336H153.759V284.336H165.554V278.336ZM176.382 281.336V284.336H178.561L179.235 282.264L176.382 281.336ZM172.428 281.336L169.592 280.357L168.218 284.336H172.428V281.336ZM178.453 263.881V260.881H176.315L175.618 262.902L178.453 263.881ZM183.209 263.881L186.045 262.904L185.348 260.881H183.209V263.881ZM189.226 281.336V284.336H193.434L192.062 280.358L189.226 281.336ZM185.272 281.336L182.418 282.262L183.091 284.336H185.272V281.336ZM180.899 267.87L183.753 266.943L183.08 264.87H180.899V267.87ZM180.763 267.87V264.87H178.584L177.91 266.942L180.763 267.87ZM176.135 274.475V271.475H173.135V274.475H176.135ZM185.476 274.475H188.476V271.475H185.476V274.475ZM185.476 277.356V280.356H188.476V277.356H185.476ZM176.135 277.356H173.135V280.356H176.135V277.356ZM176.382 278.336H172.428V284.336H176.382V278.336ZM175.264 282.315L181.289 264.86L175.618 262.902L169.592 280.357L175.264 282.315ZM178.453 266.881H183.209V260.881H178.453V266.881ZM180.373 264.859L186.39 282.314L192.062 280.358L186.045 262.904L180.373 264.859ZM189.226 278.336H185.272V284.336H189.226V278.336ZM188.125 280.409L183.753 266.943L178.046 268.796L182.418 282.262L188.125 280.409ZM180.899 264.87H180.763V270.87H180.899V264.87ZM177.91 266.942L173.53 280.408L179.235 282.264L183.616 268.798L177.91 266.942ZM176.135 277.475H185.476V271.475H176.135V277.475ZM182.476 274.475V277.356H188.476V274.475H182.476ZM185.476 274.356H176.135V280.356H185.476V274.356ZM179.135 277.356V274.475H173.135V277.356H179.135ZM193.449 266.924H190.449V269.924H193.449V266.924ZM193.449 263.881V260.881H190.449V263.881H193.449ZM207.785 263.881H210.785V260.881H207.785V263.881ZM207.785 266.924V269.924H210.785V266.924H207.785ZM202.441 266.924V263.924H199.441V266.924H202.441ZM202.441 281.336V284.336H205.441V281.336H202.441ZM198.793 281.336H195.793V284.336H198.793V281.336ZM198.793 266.924H201.793V263.924H198.793V266.924ZM196.449 266.924V263.881H190.449V266.924H196.449ZM193.449 266.881H207.785V260.881H193.449V266.881ZM204.785 263.881V266.924H210.785V263.881H204.785ZM207.785 263.924H202.441V269.924H207.785V263.924ZM199.441 266.924V281.336H205.441V266.924H199.441ZM202.441 278.336H198.793V284.336H202.441V278.336ZM201.793 281.336V266.924H195.793V281.336H201.793ZM198.793 263.924H193.449V269.924H198.793V263.924ZM224.517 263.881V260.881H219.38L221.905 265.355L224.517 263.881ZM228.651 263.881L231.302 262.477L230.457 260.881H228.651V263.881ZM232.631 271.398L229.98 272.802L230.825 274.398H232.631V271.398ZM232.801 271.398V274.398H234.608L235.453 272.802L232.801 271.398ZM236.782 263.881V260.881H234.975L234.13 262.477L236.782 263.881ZM240.915 263.881L243.528 265.355L246.052 260.881H240.915V263.881ZM234.549 275.165L231.936 273.691L231.549 274.377V275.165H234.549ZM234.549 281.336V284.336H237.549V281.336H234.549ZM230.884 281.336H227.884V284.336H230.884V281.336ZM230.884 275.165H233.884V274.377L233.497 273.691L230.884 275.165ZM224.517 266.881H228.651V260.881H224.517V266.881ZM226 265.285L229.98 272.802L235.282 269.994L231.302 262.477L226 265.285ZM232.631 274.398H232.801V268.398H232.631V274.398ZM235.453 272.802L239.433 265.285L234.13 262.477L230.15 269.994L235.453 272.802ZM236.782 266.881H240.915V260.881H236.782V266.881ZM238.302 262.407L231.936 273.691L237.161 276.639L243.528 265.355L238.302 262.407ZM231.549 275.165V281.336H237.549V275.165H231.549ZM234.549 278.336H230.884V284.336H234.549V278.336ZM233.884 281.336V275.165H227.884V281.336H233.884ZM233.497 273.691L227.13 262.407L221.905 265.355L228.271 276.639L233.497 273.691ZM261.753 277.466L259.114 276.04L259.11 276.049L261.753 277.466ZM258.822 280.526L260.301 283.136L260.305 283.134L258.822 280.526ZM250.486 280.518L251.975 277.913L250.486 280.518ZM247.563 277.458L244.919 278.876L244.919 278.876L247.563 277.458ZM247.563 267.751L250.207 269.168L250.207 269.168L247.563 267.751ZM250.486 264.699L251.966 267.309L251.975 267.304L250.486 264.699ZM258.822 264.699L257.333 267.304L257.34 267.308L257.347 267.312L258.822 264.699ZM261.753 267.751L259.11 269.168L259.114 269.177L261.753 267.751ZM258.54 269.489L255.784 270.673L255.787 270.681L255.791 270.689L258.54 269.489ZM256.998 267.563L255.349 270.069L255.349 270.069L256.998 267.563ZM252.327 267.563L253.977 270.069L253.977 270.069L252.327 267.563ZM250.776 269.489L248.026 268.29L248.023 268.297L248.02 268.305L250.776 269.489ZM250.776 275.728L248.02 276.912L248.023 276.92L248.026 276.927L250.776 275.728ZM252.327 277.654L253.977 275.148L253.977 275.148L252.327 277.654ZM256.998 277.654L255.349 275.148L255.349 275.148L256.998 277.654ZM258.54 275.728L255.791 274.528L255.787 274.536L255.784 274.544L258.54 275.728ZM259.836 272.609C259.836 274.138 259.546 275.241 259.114 276.04L264.393 278.893C265.404 277.022 265.836 274.886 265.836 272.609H259.836ZM259.11 276.049C258.643 276.919 258.054 277.511 257.338 277.918L260.305 283.134C262.066 282.132 263.432 280.684 264.397 278.884L259.11 276.049ZM257.342 277.916C256.599 278.338 255.73 278.574 254.663 278.574V284.574C256.675 284.574 258.578 284.112 260.301 283.136L257.342 277.916ZM254.663 278.574C253.584 278.574 252.713 278.335 251.975 277.913L248.998 283.122C250.725 284.109 252.639 284.574 254.663 284.574V278.574ZM251.975 277.913C251.264 277.507 250.675 276.914 250.207 276.04L244.919 278.876C245.883 280.672 247.243 282.119 248.998 283.122L251.975 277.913ZM250.207 276.04C249.777 275.238 249.489 274.134 249.489 272.609H243.489C243.489 274.878 243.918 277.008 244.919 278.876L250.207 276.04ZM249.489 272.609C249.489 271.075 249.777 269.97 250.207 269.168L244.919 266.333C243.917 268.202 243.489 270.335 243.489 272.609H249.489ZM250.207 269.168C250.674 268.296 251.26 267.709 251.966 267.309L249.007 262.09C247.247 263.087 245.884 264.534 244.919 266.333L250.207 269.168ZM251.975 267.304C252.713 266.882 253.584 266.643 254.663 266.643V260.643C252.639 260.643 250.725 261.108 248.998 262.095L251.975 267.304ZM254.663 266.643C255.726 266.643 256.591 266.88 257.333 267.304L260.31 262.095C258.586 261.11 256.679 260.643 254.663 260.643V266.643ZM257.347 267.312C258.058 267.713 258.644 268.3 259.11 269.168L264.397 266.333C263.431 264.531 262.063 263.083 260.296 262.087L257.347 267.312ZM259.114 269.177C259.546 269.976 259.836 271.079 259.836 272.609H265.836C265.836 270.331 265.404 268.195 264.393 266.324L259.114 269.177ZM262.094 272.609C262.094 271.094 261.87 269.619 261.29 268.29L255.791 270.689C255.95 271.053 256.094 271.657 256.094 272.609H262.094ZM261.297 268.305C260.739 267.006 259.876 265.866 258.647 265.057L255.349 270.069C255.449 270.135 255.615 270.279 255.784 270.673L261.297 268.305ZM258.647 265.057C257.435 264.259 256.067 263.907 254.663 263.907V269.907C255.042 269.907 255.231 269.992 255.349 270.069L258.647 265.057ZM254.663 263.907C253.258 263.907 251.89 264.259 250.678 265.057L253.977 270.069C254.094 269.992 254.283 269.907 254.663 269.907V263.907ZM250.678 265.057C249.454 265.863 248.59 266.998 248.026 268.29L253.526 270.689C253.701 270.288 253.872 270.138 253.977 270.069L250.678 265.057ZM248.02 268.305C247.451 269.629 247.231 271.099 247.231 272.609H253.231C253.231 271.652 253.374 271.042 253.533 270.673L248.02 268.305ZM247.231 272.609C247.231 274.118 247.451 275.588 248.02 276.912L253.533 274.544C253.374 274.175 253.231 273.565 253.231 272.609H247.231ZM248.026 276.927C248.59 278.219 249.454 279.354 250.678 280.16L253.977 275.148C253.872 275.079 253.701 274.93 253.526 274.528L248.026 276.927ZM250.678 280.16C251.89 280.958 253.258 281.31 254.663 281.31V275.31C254.283 275.31 254.094 275.225 253.977 275.148L250.678 280.16ZM254.663 281.31C256.067 281.31 257.435 280.958 258.647 280.16L255.349 275.148C255.231 275.225 255.042 275.31 254.663 275.31V281.31ZM258.647 280.16C259.876 279.351 260.739 278.211 261.297 276.912L255.784 274.544C255.615 274.938 255.449 275.082 255.349 275.148L258.647 280.16ZM261.29 276.927C261.87 275.598 262.094 274.123 262.094 272.609H256.094C256.094 273.56 255.95 274.164 255.791 274.528L261.29 276.927ZM281.271 263.881V260.881H278.271V263.881H281.271ZM284.961 263.881H287.961V260.881H284.961V263.881ZM284.049 278.557L281.519 276.946L281.512 276.957L284.049 278.557ZM281.518 280.79L282.831 283.488L282.843 283.482L281.518 280.79ZM273.924 280.79L272.599 283.482L272.611 283.488L273.924 280.79ZM271.393 278.557L268.856 280.158L268.856 280.158L271.393 278.557ZM270.49 263.881V260.881H267.49V263.881H270.49ZM274.18 263.881H277.18V260.881H274.18V263.881ZM274.615 276.674L271.997 278.141L272.004 278.151L272.01 278.162L274.615 276.674ZM275.859 277.893L274.407 280.518L274.407 280.518L275.859 277.893ZM279.592 277.893L278.14 275.267L278.128 275.274L279.592 277.893ZM280.828 276.674L278.223 275.185L278.217 275.196L278.211 275.207L280.828 276.674ZM281.271 266.881H284.961V260.881H281.271V266.881ZM281.961 263.881V275.216H287.961V263.881H281.961ZM281.961 275.216C281.961 275.992 281.783 276.531 281.519 276.946L286.58 280.169C287.531 278.675 287.961 276.987 287.961 275.216H281.961ZM281.512 276.957C281.227 277.409 280.818 277.791 280.193 278.099L282.843 283.482C284.388 282.721 285.667 281.615 286.586 280.158L281.512 276.957ZM280.205 278.093C279.601 278.387 278.801 278.583 277.725 278.583V284.583C279.535 284.583 281.264 284.25 282.831 283.488L280.205 278.093ZM277.725 278.583C276.641 278.583 275.84 278.386 275.237 278.093L272.611 283.488C274.179 284.251 275.911 284.583 277.725 284.583V278.583ZM275.249 278.099C274.624 277.791 274.215 277.409 273.93 276.957L268.856 280.158C269.775 281.615 271.054 282.721 272.599 283.482L275.249 278.099ZM273.93 276.957C273.668 276.54 273.49 275.997 273.49 275.216H267.49C267.49 276.981 267.914 278.665 268.856 280.158L273.93 276.957ZM273.49 275.216V263.881H267.49V275.216H273.49ZM270.49 266.881H274.18V260.881H270.49V266.881ZM271.18 263.881V274.901H277.18V263.881H271.18ZM271.18 274.901C271.18 276.016 271.427 277.123 271.997 278.141L277.232 275.207C277.222 275.191 277.18 275.116 277.18 274.901H271.18ZM272.01 278.162C272.585 279.169 273.404 279.963 274.407 280.518L277.311 275.268C277.268 275.244 277.251 275.228 277.246 275.223C277.242 275.219 277.233 275.21 277.219 275.185L272.01 278.162ZM274.407 280.518C275.453 281.097 276.591 281.336 277.725 281.336V275.336C277.439 275.336 277.333 275.279 277.311 275.268L274.407 280.518ZM277.725 281.336C278.86 281.336 280.005 281.099 281.056 280.511L278.128 275.274C278.122 275.277 278.022 275.336 277.725 275.336V281.336ZM281.044 280.518C282.051 279.96 282.873 279.16 283.445 278.141L278.211 275.207C278.205 275.218 278.201 275.223 278.199 275.226C278.197 275.228 278.196 275.229 278.195 275.23C278.194 275.231 278.18 275.245 278.14 275.268L281.044 280.518ZM283.432 278.162C284.016 277.141 284.271 276.026 284.271 274.901H278.271C278.271 275.106 278.23 275.173 278.223 275.185L283.432 278.162ZM284.271 274.901V263.881H278.271V274.901H284.271ZM292.917 281.336H289.917V284.336H292.917V281.336ZM292.917 263.881V260.881H289.917V263.881H292.917ZM303.179 264.589L301.824 267.265L301.834 267.27L301.844 267.275L303.179 264.589ZM305.318 266.574L302.711 268.059L302.717 268.069L302.723 268.08L305.318 266.574ZM305.309 272.574L307.879 274.123L307.883 274.115L305.309 272.574ZM303.136 274.484L301.867 271.765L301.86 271.768L303.136 274.484ZM295.099 275.148H292.099V278.148H295.099V275.148ZM295.099 272.182V269.182H292.099V272.182H295.099ZM300.869 271.893L302.018 274.664L302.018 274.664L300.869 271.893ZM301.909 271.023L299.34 269.474L299.331 269.488L299.323 269.502L301.909 271.023ZM301.909 268.117L299.304 269.605L299.312 269.619L299.32 269.633L301.909 268.117ZM300.861 267.214L299.627 269.948L299.647 269.957L299.667 269.966L300.861 267.214ZM296.608 266.898V263.898H293.608V266.898H296.608ZM296.608 281.336V284.336H299.608V281.336H296.608ZM302.343 273.393L304.976 271.955L304.123 270.393H302.343V273.393ZM306.682 281.336V284.336H311.738L309.314 279.898L306.682 281.336ZM302.608 281.336L299.962 282.75L300.809 284.336H302.608V281.336ZM298.363 273.393V270.393H293.359L295.717 274.806L298.363 273.393ZM295.917 281.336V263.881H289.917V281.336H295.917ZM292.917 266.881H299.804V260.881H292.917V266.881ZM299.804 266.881C300.771 266.881 301.408 267.055 301.824 267.265L304.533 261.912C303.086 261.179 301.472 260.881 299.804 260.881V266.881ZM301.844 267.275C302.281 267.493 302.536 267.751 302.711 268.059L307.925 265.09C307.123 263.682 305.951 262.616 304.514 261.902L301.844 267.275ZM302.723 268.08C302.91 268.402 303.059 268.867 303.059 269.583H309.059C309.059 267.992 308.715 266.452 307.913 265.069L302.723 268.08ZM303.059 269.583C303.059 270.304 302.908 270.746 302.735 271.034L307.883 274.115C308.711 272.733 309.059 271.181 309.059 269.583H303.059ZM302.74 271.026C302.573 271.303 302.322 271.553 301.867 271.765L304.406 277.202C305.848 276.528 307.046 275.505 307.879 274.123L302.74 271.026ZM301.86 271.768C301.414 271.978 300.732 272.148 299.71 272.148V278.148C301.37 278.148 302.972 277.875 304.412 277.199L301.86 271.768ZM299.71 272.148H295.099V278.148H299.71V272.148ZM298.099 275.148V272.182H292.099V275.148H298.099ZM295.099 275.182H299.113V269.182H295.099V275.182ZM299.113 275.182C300.067 275.182 301.074 275.055 302.018 274.664L299.72 269.121C299.732 269.116 299.569 269.182 299.113 269.182V275.182ZM302.018 274.664C303.007 274.254 303.896 273.562 304.495 272.544L299.323 269.502C299.385 269.397 299.466 269.303 299.554 269.229C299.639 269.158 299.705 269.128 299.72 269.121L302.018 274.664ZM304.478 272.572C305.06 271.607 305.258 270.556 305.258 269.583H299.258C299.258 269.669 299.249 269.691 299.255 269.666C299.262 269.638 299.284 269.566 299.34 269.474L304.478 272.572ZM305.258 269.583C305.258 268.606 305.061 267.563 304.497 266.601L299.32 269.633C299.298 269.595 299.282 269.561 299.271 269.533C299.26 269.505 299.255 269.486 299.253 269.477C299.249 269.462 299.258 269.492 299.258 269.583H305.258ZM304.514 266.629C303.926 265.6 303.044 264.891 302.054 264.461L299.667 269.966C299.656 269.961 299.597 269.934 299.518 269.865C299.436 269.795 299.361 269.705 299.304 269.605L304.514 266.629ZM302.094 264.479C301.121 264.04 300.077 263.898 299.096 263.898V269.898C299.306 269.898 299.451 269.914 299.542 269.93C299.633 269.946 299.653 269.96 299.627 269.948L302.094 264.479ZM299.096 263.898H296.608V269.898H299.096V263.898ZM293.608 266.898V281.336H299.608V266.898H293.608ZM296.608 278.336H292.917V284.336H296.608V278.336ZM299.711 274.831L304.049 282.774L309.314 279.898L304.976 271.955L299.711 274.831ZM306.682 278.336H302.608V284.336H306.682V278.336ZM305.254 279.922L301.009 271.979L295.717 274.806L299.962 282.75L305.254 279.922ZM298.363 276.393H302.343V270.393H298.363V276.393ZM327.991 281.336L325.107 282.161L325.729 284.336H327.991V281.336ZM322.997 263.881V260.881H319.018L320.112 264.707L322.997 263.881ZM327.028 263.881L329.946 263.186L329.397 260.881H327.028V263.881ZM329.917 276.009L326.999 276.704L327.548 279.009H329.917V276.009ZM330.062 276.009V279.009H332.375L332.963 276.772L330.062 276.009ZM333.25 263.881V260.881H330.936L330.348 263.119L333.25 263.881ZM336.701 263.881L339.604 263.122L339.017 260.881H336.701V263.881ZM339.88 276.035L336.978 276.794L337.564 279.035H339.88V276.035ZM340.034 276.035V279.035H342.404L342.952 276.728L340.034 276.035ZM342.923 263.881V260.881H340.552L340.004 263.187L342.923 263.881ZM346.954 263.881L349.838 264.707L350.933 260.881H346.954V263.881ZM341.96 281.336V284.336H344.222L344.844 282.161L341.96 281.336ZM338.363 281.336L335.483 282.175L336.112 284.336H338.363V281.336ZM335.039 269.924L337.92 269.085L337.29 266.924H335.039V269.924ZM334.903 269.924V266.924H332.65L332.022 269.087L334.903 269.924ZM331.588 281.336V284.336H333.84L334.468 282.173L331.588 281.336ZM330.875 280.511L325.881 263.056L320.112 264.707L325.107 282.161L330.875 280.511ZM322.997 266.881H327.028V260.881H322.997V266.881ZM324.11 264.576L326.999 276.704L332.835 275.314L329.946 263.186L324.11 264.576ZM329.917 279.009H330.062V273.009H329.917V279.009ZM332.963 276.772L336.151 264.644L330.348 263.119L327.161 275.247L332.963 276.772ZM333.25 266.881H336.701V260.881H333.25V266.881ZM333.799 264.64L336.978 276.794L342.783 275.275L339.604 263.122L333.799 264.64ZM339.88 279.035H340.034V273.035H339.88V279.035ZM342.952 276.728L345.841 264.575L340.004 263.187L337.115 275.341L342.952 276.728ZM342.923 266.881H346.954V260.881H342.923V266.881ZM344.07 263.056L339.076 280.511L344.844 282.161L349.838 264.707L344.07 263.056ZM341.96 278.336H338.363V284.336H341.96V278.336ZM341.243 280.497L337.92 269.085L332.159 270.763L335.483 282.175L341.243 280.497ZM335.039 266.924H334.903V272.924H335.039V266.924ZM332.022 269.087L328.707 280.499L334.468 282.173L337.784 270.761L332.022 269.087ZM331.588 278.336H327.991V284.336H331.588V278.336ZM355.1 281.336V284.336H357.279L357.953 282.264L355.1 281.336ZM351.145 281.336L348.31 280.357L346.936 284.336H351.145V281.336ZM357.171 263.881V260.881H355.033L354.335 262.902L357.171 263.881ZM361.927 263.881L364.763 262.904L364.066 260.881H361.927V263.881ZM367.944 281.336V284.336H372.151L370.78 280.358L367.944 281.336ZM363.989 281.336L361.136 282.262L361.809 284.336H363.989V281.336ZM359.617 267.87L362.47 266.943L361.797 264.87H359.617V267.87ZM359.481 267.87V264.87H357.302L356.628 266.942L359.481 267.87ZM354.853 274.475V271.475H351.853V274.475H354.853ZM364.194 274.475H367.194V271.475H364.194V274.475ZM364.194 277.356V280.356H367.194V277.356H364.194ZM354.853 277.356H351.853V280.356H354.853V277.356ZM355.1 278.336H351.145V284.336H355.1V278.336ZM353.981 282.315L360.007 264.86L354.335 262.902L348.31 280.357L353.981 282.315ZM357.171 266.881H361.927V260.881H357.171V266.881ZM359.09 264.859L365.107 282.314L370.78 280.358L364.763 262.904L359.09 264.859ZM367.944 278.336H363.989V284.336H367.944V278.336ZM366.842 280.409L362.47 266.943L356.764 268.796L361.136 282.262L366.842 280.409ZM359.617 264.87H359.481V270.87H359.617V264.87ZM356.628 266.942L352.247 280.408L357.953 282.264L362.333 268.798L356.628 266.942ZM354.853 277.475H364.194V271.475H354.853V277.475ZM361.194 274.475V277.356H367.194V274.475H361.194ZM364.194 274.356H354.853V280.356H364.194V274.356ZM357.853 277.356V274.475H351.853V277.356H357.853ZM372.161 263.881V260.881H367.023L369.548 265.355L372.161 263.881ZM376.294 263.881L378.945 262.477L378.1 260.881H376.294V263.881ZM380.274 271.398L377.623 272.802L378.468 274.398H380.274V271.398ZM380.445 271.398V274.398H382.251L383.096 272.802L380.445 271.398ZM384.425 263.881V260.881H382.619L381.773 262.477L384.425 263.881ZM388.558 263.881L391.171 265.355L393.695 260.881H388.558V263.881ZM382.192 275.165L379.579 273.691L379.192 274.377V275.165H382.192ZM382.192 281.336V284.336H385.192V281.336H382.192ZM378.527 281.336H375.527V284.336H378.527V281.336ZM378.527 275.165H381.527V274.377L381.14 273.691L378.527 275.165ZM372.161 266.881H376.294V260.881H372.161V266.881ZM373.643 265.285L377.623 272.802L382.925 269.994L378.945 262.477L373.643 265.285ZM380.274 274.398H380.445V268.398H380.274V274.398ZM383.096 272.802L387.076 265.285L381.773 262.477L377.793 269.994L383.096 272.802ZM384.425 266.881H388.558V260.881H384.425V266.881ZM385.945 262.407L379.579 273.691L384.805 276.639L391.171 265.355L385.945 262.407ZM379.192 275.165V281.336H385.192V275.165H379.192ZM382.192 278.336H378.527V284.336H382.192V278.336ZM381.527 281.336V275.165H375.527V281.336H381.527ZM381.14 273.691L374.773 262.407L369.548 265.355L375.914 276.639L381.14 273.691Z" fill="black" fill-opacity="0.68"/>
<path d="M67.7289 281.336V263.881H79.2857V266.924H71.4192V271.083H78.5187V274.126H71.4192V281.336H67.7289ZM90.3783 263.881V281.336H86.6879V263.881H90.3783ZM112.934 263.881V281.336H109.746L102.153 270.35H102.025V281.336H98.3345V263.881H101.573L109.107 274.859H109.261V263.881H112.934ZM127.09 281.336H120.903V263.881H127.142C128.897 263.881 130.409 264.231 131.676 264.93C132.943 265.623 133.917 266.62 134.599 267.921C135.286 269.222 135.63 270.779 135.63 272.591C135.63 274.41 135.286 275.972 134.599 277.279C133.917 278.586 132.937 279.589 131.659 280.287C130.386 280.986 128.863 281.336 127.09 281.336ZM124.593 278.174H126.937C128.028 278.174 128.946 277.981 129.69 277.594C130.44 277.202 131.002 276.597 131.377 275.779C131.758 274.955 131.948 273.893 131.948 272.591C131.948 271.302 131.758 270.248 131.377 269.43C131.002 268.611 130.443 268.009 129.698 267.623C128.954 267.236 128.036 267.043 126.946 267.043H124.593V278.174ZM153.759 281.336V263.881H165.52V266.924H157.449V271.083H164.915V274.126H157.449V278.293H165.554V281.336H153.759ZM176.382 281.336H172.428L178.453 263.881H183.209L189.226 281.336H185.272L180.899 267.87H180.763L176.382 281.336ZM176.135 274.475H185.476V277.356H176.135V274.475ZM193.449 266.924V263.881H207.785V266.924H202.441V281.336H198.793V266.924H193.449ZM224.517 263.881H228.651L232.631 271.398H232.801L236.782 263.881H240.915L234.549 275.165V281.336H230.884V275.165L224.517 263.881ZM262.836 272.609C262.836 274.512 262.475 276.131 261.753 277.466C261.038 278.802 260.06 279.822 258.822 280.526C257.589 281.225 256.202 281.574 254.663 281.574C253.111 281.574 251.719 281.222 250.486 280.518C249.253 279.813 248.279 278.793 247.563 277.458C246.847 276.123 246.489 274.506 246.489 272.609C246.489 270.705 246.847 269.086 247.563 267.751C248.279 266.415 249.253 265.398 250.486 264.699C251.719 263.995 253.111 263.643 254.663 263.643C256.202 263.643 257.589 263.995 258.822 264.699C260.06 265.398 261.038 266.415 261.753 267.751C262.475 269.086 262.836 270.705 262.836 272.609ZM259.094 272.609C259.094 271.376 258.91 270.336 258.54 269.489C258.177 268.643 257.663 268.001 256.998 267.563C256.333 267.126 255.555 266.907 254.663 266.907C253.77 266.907 252.992 267.126 252.327 267.563C251.663 268.001 251.145 268.643 250.776 269.489C250.413 270.336 250.231 271.376 250.231 272.609C250.231 273.841 250.413 274.881 250.776 275.728C251.145 276.574 251.663 277.216 252.327 277.654C252.992 278.091 253.77 278.31 254.663 278.31C255.555 278.31 256.333 278.091 256.998 277.654C257.663 277.216 258.177 276.574 258.54 275.728C258.91 274.881 259.094 273.841 259.094 272.609ZM281.271 263.881H284.961V275.216C284.961 276.489 284.657 277.603 284.049 278.557C283.447 279.512 282.603 280.256 281.518 280.79C280.433 281.319 279.168 281.583 277.725 281.583C276.276 281.583 275.009 281.319 273.924 280.79C272.839 280.256 271.995 279.512 271.393 278.557C270.791 277.603 270.49 276.489 270.49 275.216V263.881H274.18V274.901C274.18 275.566 274.325 276.157 274.615 276.674C274.91 277.191 275.325 277.597 275.859 277.893C276.393 278.188 277.015 278.336 277.725 278.336C278.441 278.336 279.063 278.188 279.592 277.893C280.126 277.597 280.538 277.191 280.828 276.674C281.123 276.157 281.271 275.566 281.271 274.901V263.881ZM292.917 281.336V263.881H299.804C301.122 263.881 302.247 264.117 303.179 264.589C304.116 265.055 304.829 265.716 305.318 266.574C305.812 267.427 306.059 268.43 306.059 269.583C306.059 270.742 305.809 271.739 305.309 272.574C304.809 273.404 304.085 274.04 303.136 274.484C302.193 274.927 301.051 275.148 299.71 275.148H295.099V272.182H299.113C299.818 272.182 300.403 272.086 300.869 271.893C301.335 271.699 301.682 271.41 301.909 271.023C302.142 270.637 302.258 270.157 302.258 269.583C302.258 269.003 302.142 268.515 301.909 268.117C301.682 267.719 301.332 267.418 300.861 267.214C300.395 267.003 299.807 266.898 299.096 266.898H296.608V281.336H292.917ZM302.343 273.393L306.682 281.336H302.608L298.363 273.393H302.343ZM327.991 281.336L322.997 263.881H327.028L329.917 276.009H330.062L333.25 263.881H336.701L339.88 276.035H340.034L342.923 263.881H346.954L341.96 281.336H338.363L335.039 269.924H334.903L331.588 281.336H327.991ZM355.1 281.336H351.145L357.171 263.881H361.927L367.944 281.336H363.989L359.617 267.87H359.481L355.1 281.336ZM354.853 274.475H364.194V277.356H354.853V274.475ZM372.161 263.881H376.294L380.274 271.398H380.445L384.425 263.881H388.558L382.192 275.165V281.336H378.527V275.165L372.161 263.881Z" fill="#FE527E"/>
<defs>
<linearGradient id="paint0_linear_1_8" x1="227.634" y1="0" x2="227.634" y2="455.269" gradientUnits="userSpaceOnUse">
<stop stop-color="#FFB6C1"/>
<stop offset="0.820684" stop-color="#EEEEEE"/>
<stop offset="1" stop-color="white" stop-opacity="0"/>
</linearGradient>
</defs>
</svg>
